<svg width="32" height="32" viewBox="0 0 20 20" xmlns="http://www.w3.org/2000/svg">
  <style>
    path {
      fill: #000000; 
      transition: fill 0.2s ease;
    }

    @media (prefers-color-scheme: light) {
      path {
        fill: #000000;
      }
    }

    @media (prefers-color-scheme: dark) {
      path {
        fill: #ffffff;
      }
    }
  </style>
  
  <path d="M4.43875 2.22161C4.43566 0.246093 6.82546 -0.743795 8.22018 0.655284C9.08524 1.52304 10.4906 1.52304 11.3557 0.655284C12.7504 -0.743795 15.1402 0.246092 15.1371 2.22161C15.1352 3.44689 16.129 4.44066 17.3543 4.43875C19.3298 4.43566 20.3197 6.82546 18.9206 8.22018C18.0528 9.08524 18.0528 10.4906 18.9206 11.3557C20.3197 12.7504 19.3298 15.1402 17.3543 15.1371C16.129 15.1352 15.1352 16.129 15.1371 17.3543C15.1402 19.3298 12.7504 20.3197 11.3557 18.9206C10.4906 18.0528 9.08524 18.0528 8.22018 18.9206C6.82546 20.3197 4.43566 19.3298 4.43875 17.3543C4.44066 16.129 3.44689 15.1352 2.22161 15.1371C0.246093 15.1402 -0.743795 12.7504 0.655284 11.3557C1.52304 10.4906 1.52304 9.08524 0.655284 8.22018C-0.743795 6.82546 0.246092 4.43566 2.22161 4.43875C3.44689 4.44066 4.44066 3.44689 4.43875 2.22161Z"/>
</svg>